<?xml version="1.0" encoding="utf-8"?>
<!-- Generator: Adobe Illustrator 16.2.0, SVG Export Plug-In . SVG Version: 6.00 Build 0)  -->
<!DOCTYPE svg PUBLIC "-//W3C//DTD SVG 1.1//EN" "http://www.w3.org/Graphics/SVG/1.1/DTD/svg11.dtd">
<svg version="1.1" id="Слой_1" xmlns="http://www.w3.org/2000/svg" xmlns:xlink="http://www.w3.org/1999/xlink" x="0px" y="0px"
	 width="95.001px" height="95.001px" viewBox="0 0 95.001 95.001" enable-background="new 0 0 95.001 95.001" xml:space="preserve">
<g>
	<path d="M0,47.5c0,26.192,21.308,47.501,47.5,47.501c9.186,0,17.765-2.628,25.041-7.161l5.717,5.717
		c0.138,0.138,0.324,0.215,0.52,0.215c0.195,0,0.381-0.077,0.519-0.215l13.64-13.642c0.287-0.287,0.287-0.751,0-1.038l-5.581-5.582
		c4.829-7.435,7.646-16.29,7.646-25.796C95.001,21.308,73.692,0,47.5,0C21.308,0,0,21.308,0,47.5z M73.805,87.028l-1.062-1.062
		L60.968,74.189c-0.275-0.275-0.763-0.275-1.038,0l-5.376,5.376L42.996,43.615l35.953,11.558l-5.376,5.376
		c-0.287,0.287-0.287,0.751,0,1.038L85.47,73.487l1.052,1.052l4.857,4.857L78.777,92L73.805,87.028z M1.469,47.5
		c0-25.381,20.649-46.031,46.031-46.031c25.383,0,46.033,20.65,46.033,46.031c0,9.1-2.665,17.584-7.239,24.734L75.13,61.068
		l5.708-5.707c0.181-0.181,0.255-0.443,0.195-0.691c-0.061-0.25-0.246-0.449-0.489-0.526l-38.46-12.364
		c-0.264-0.087-0.55-0.015-0.744,0.18c-0.195,0.195-0.264,0.482-0.179,0.745L53.524,81.16c0.078,0.244,0.277,0.429,0.526,0.489
		c0.251,0.057,0.51-0.014,0.691-0.195l5.708-5.707l11.029,11.03c-6.988,4.282-15.2,6.755-23.979,6.755
		C22.118,93.533,1.469,72.883,1.469,47.5z"/>
	<path d="M46.992,28.875c0.405,0,0.734,0.328,0.734,0.734c0,0.406-0.329,0.734-0.734,0.734c-9.522,0-17.268,7.747-17.268,17.269
		c0,0.405-0.329,0.734-0.734,0.734s-0.734-0.329-0.734-0.734C28.255,37.28,36.66,28.875,46.992,28.875z"/>
	<path d="M46.992,16.477c0.405,0,0.734,0.329,0.734,0.734s-0.329,0.734-0.734,0.734c-16.358,0-29.667,13.309-29.667,29.667
		c0,0.405-0.329,0.734-0.734,0.734s-0.734-0.329-0.734-0.734C15.857,30.444,29.824,16.477,46.992,16.477z"/>
</g>
</svg>
